<svg xmlns="http://www.w3.org/2000/svg" xmlns:xlink="http://www.w3.org/1999/xlink" version="1.1" x="0px" y="0px" viewBox="0 0 66 82.5" enable-background="new 0 0 66 66" xml:space="preserve"><g><g><path d="M57.3,1H27.5c-3.6,0-6.5,2.9-6.5,6.5v0.5C14.4,6.5,8.4,6.7,2.9,8.7C2.5,8.8,2.2,9.2,2.2,9.6V52c0,0.7,0.7,1.2,1.3,0.9    c5.3-1.9,11-2.1,17.5-0.6v6.2c0,3.6,2.9,6.5,6.5,6.5h29.8c3.6,0,6.5-2.9,6.5-6.5V7.5C63.8,3.9,60.9,1,57.3,1z M4.2,50.6V10.3    C11.6,8,19,9,26.4,11.5v40.3c-1.4-0.5-2.8-0.9-4.1-1.2c-3.3-0.8-6.4-1.2-9.3-1.2C9.9,49.4,7,49.8,4.2,50.6z M56.5,11.8v40.4H28.4    V11.8H56.5z M61.8,58.5c0,2.5-2,4.5-4.5,4.5H27.5c-2.5,0-4.5-2-4.5-4.5v-5.7c1.2,0.3,2.5,0.8,4,1.3c0.1,0,0.2,0.1,0.3,0.1h30.1    c0.6,0,1-0.4,1-1V10.8c0-0.6-0.4-1-1-1h-30c-1.6-0.5-3-1-4.5-1.3V7.5c0-2.5,2-4.5,4.5-4.5h29.8c2.5,0,4.5,2,4.5,4.5V58.5z"/></g><g><path d="M8.8,17.3c4.1-0.8,8.3-0.6,13,0.4c0.5,0.1,1.1-0.2,1.2-0.8c0.1-0.5-0.2-1.1-0.8-1.2c-5-1.1-9.5-1.2-13.8-0.4    c-0.5,0.1-0.9,0.6-0.8,1.2C7.7,17.1,8.2,17.4,8.8,17.3z"/></g><g><path d="M8.8,26.8c4.1-0.8,8.3-0.6,13,0.4c0.5,0.1,1.1-0.2,1.2-0.8c0.1-0.5-0.2-1.1-0.8-1.2c-5-1.1-9.5-1.2-13.8-0.4    C7.8,25,7.5,25.5,7.6,26C7.7,26.6,8.2,26.9,8.8,26.8z"/></g><g><path d="M8.8,36.4c4.1-0.8,8.3-0.6,13,0.4c0.5,0.1,1.1-0.2,1.2-0.8c0.1-0.5-0.2-1.1-0.8-1.2c-5-1.1-9.5-1.2-13.8-0.4    c-0.5,0.1-0.9,0.6-0.8,1.2C7.7,36.1,8.2,36.5,8.8,36.4z"/></g><g><path d="M23,45.5c0.1-0.5-0.2-1.1-0.8-1.2c-5-1.1-9.5-1.2-13.8-0.4c-0.5,0.1-0.9,0.6-0.8,1.2c0.1,0.5,0.6,0.9,1.2,0.8    c4.1-0.8,8.3-0.6,13,0.4c0.1,0,0.1,0,0.2,0C22.5,46.3,22.9,46,23,45.5z"/></g><g><path d="M42.4,55.3c-1.8,0-3.3,1.5-3.3,3.3c0,1.8,1.5,3.3,3.3,3.3c1.8,0,3.3-1.5,3.3-3.3C45.7,56.8,44.2,55.3,42.4,55.3z     M42.4,59.9c-0.7,0-1.3-0.6-1.3-1.3c0-0.7,0.6-1.3,1.3-1.3c0.7,0,1.3,0.6,1.3,1.3C43.7,59.3,43.1,59.9,42.4,59.9z"/></g><g><path d="M44.9,5.4h-5c-0.6,0-1,0.4-1,1c0,0.6,0.4,1,1,1h5c0.6,0,1-0.4,1-1C45.9,5.8,45.5,5.4,44.9,5.4z"/></g><g><path d="M34,20.1h16.8c0.6,0,1-0.4,1-1c0-0.6-0.4-1-1-1H34c-0.6,0-1,0.4-1,1C33,19.6,33.5,20.1,34,20.1z"/></g><g><path d="M34,28.7h16.8c0.6,0,1-0.4,1-1s-0.4-1-1-1H34c-0.6,0-1,0.4-1,1S33.5,28.7,34,28.7z"/></g><g><path d="M34,37.3h16.8c0.6,0,1-0.4,1-1c0-0.6-0.4-1-1-1H34c-0.6,0-1,0.4-1,1C33,36.8,33.5,37.3,34,37.3z"/></g><g><path d="M34,45.9h16.8c0.6,0,1-0.4,1-1c0-0.6-0.4-1-1-1H34c-0.6,0-1,0.4-1,1C33,45.4,33.5,45.9,34,45.9z"/></g></g><text x="0" y="81" fill="#000000" font-size="5px" font-weight="bold" font-family="'Helvetica Neue', Helvetica, Arial-Unicode, Arial, Sans-serif">Created by ProSymbols</text><text x="0" y="86" fill="#000000" font-size="5px" font-weight="bold" font-family="'Helvetica Neue', Helvetica, Arial-Unicode, Arial, Sans-serif">from the Noun Project</text></svg>