<svg xmlns="http://www.w3.org/2000/svg" xmlns:xlink="http://www.w3.org/1999/xlink" version="1.1" x="0px" y="0px" viewBox="0 0 32 40" enable-background="new 0 0 32 32" xml:space="preserve"><g id="false"><g><path d="M5,21h22c0.007,0,0.013-0.001,0.02,0c0.552,0,1-0.447,1-1c0-0.258-0.097-0.492-0.257-0.67L16.854,1.479    c-0.364-0.595-1.343-0.595-1.707,0l-11,18c-0.188,0.309-0.196,0.695-0.019,1.011C4.305,20.805,4.638,21,5,21z M16,3.918L25.217,19    H6.783L16,3.918z"/><path d="M27,23H5c-0.552,0-1,0.447-1,1v6c0,0.553,0.448,1,1,1h22c0.552,0,1-0.447,1-1v-6C28,23.447,27.552,23,27,23z M26,29H6v-4    h20V29z"/></g></g><text x="0" y="47" fill="#000000" font-size="5px" font-weight="bold" font-family="'Helvetica Neue', Helvetica, Arial-Unicode, Arial, Sans-serif">Created by Icon Lauk</text><text x="0" y="52" fill="#000000" font-size="5px" font-weight="bold" font-family="'Helvetica Neue', Helvetica, Arial-Unicode, Arial, Sans-serif">from the Noun Project</text></svg>